<?xml version="1.0" standalone="no"?>
<!DOCTYPE svg PUBLIC "-//W3C//DTD SVG 20010904//EN"
 "http://www.w3.org/TR/2001/REC-SVG-20010904/DTD/svg10.dtd">
<svg version="1.0" xmlns="http://www.w3.org/2000/svg"
 width="500.000000pt" height="500.000000pt" viewBox="0 0 500.000000 500.000000"
 preserveAspectRatio="xMidYMid meet">

<g transform="translate(0.000000,500.000000) scale(0.100000,-0.100000)"
fill="#000000" stroke="none">
<path d="M2735 3848 c-5 -23 -25 -229 -25 -256 0 -44 11 8 25 118 9 69 18 133
21 143 3 9 1 17 -5 17 -6 0 -13 -10 -16 -22z"/>
<path d="M2050 3799 c0 -17 60 -136 91 -181 11 -14 19 -39 19 -55 0 -15 5 -35
10 -43 7 -11 10 -7 10 18 0 35 6 39 29 18 21 -18 66 -32 57 -17 -4 6 -13 11
-21 11 -26 0 -100 89 -147 177 -26 48 -48 81 -48 72z"/>
<path d="M3277 3599 c-24 -19 -37 -39 -37 -54 0 -19 41 -143 74 -225 5 -12 -6
-22 -40 -38 -54 -27 -53 -40 1 -18 21 9 41 16 46 16 5 0 10 -26 10 -57 l2 -58
7 45 c7 41 -8 133 -26 162 -4 6 -19 47 -35 92 l-29 81 44 43 c52 48 39 57 -17
11z"/>
<path d="M1472 3331 c-22 -21 -62 -73 -90 -115 -27 -41 -53 -72 -57 -68 -5 4
-5 2 -2 -4 4 -6 -6 -38 -22 -70 -38 -80 -63 -159 -59 -186 3 -16 9 -5 22 37
10 33 21 65 26 70 4 6 10 21 13 35 10 41 102 187 168 267 65 79 66 97 1 34z"/>
<path d="M2415 3313 c-143 -30 -227 -63 -346 -136 -67 -41 -189 -135 -189
-145 0 -4 -21 -32 -46 -62 -87 -105 -148 -261 -160 -412 -10 -122 32 -292 103
-419 52 -90 171 -249 188 -249 3 0 31 -21 63 -47 85 -70 200 -118 356 -151 50
-10 206 -6 271 8 70 14 200 72 278 124 170 113 296 291 347 491 35 139 36 203
5 368 -14 74 -100 251 -147 301 -10 11 -18 23 -18 28 0 18 -78 92 -149 142
-125 88 -255 144 -349 151 -24 2 -46 6 -49 9 -7 7 -126 6 -158 -1z m-92 -287
c81 -35 161 -156 142 -215 -3 -12 -2 -21 3 -21 12 0 4 -73 -9 -81 -6 -3 -11
-10 -11 -15 -2 -38 -97 -137 -128 -132 -8 1 -32 -4 -52 -11 -43 -14 -100 -3
-141 29 -14 11 -31 20 -38 20 -17 0 -49 30 -49 47 0 7 -5 13 -10 13 -13 0 -46
76 -54 122 -8 50 22 124 73 175 24 24 45 42 48 39 3 -3 15 4 26 15 43 39 128
46 200 15z"/>
<path d="M1351 2986 c-24 -29 -71 -222 -47 -195 8 9 67 201 63 205 -2 3 -9 -2
-16 -10z"/>
<path d="M3771 2805 c-87 -74 -123 -90 -194 -89 -36 1 -53 -2 -45 -7 7 -5 23
-9 35 -9 18 0 23 -7 26 -37 l4 -38 1 38 c2 28 6 37 20 37 34 0 118 48 172 97
30 28 53 53 50 56 -3 3 -34 -18 -69 -48z"/>
<path d="M1458 2738 c-8 -13 -25 -42 -37 -65 l-21 -42 -157 4 c-106 3 -145 1
-118 -5 22 -4 83 -9 135 -10 111 -3 138 -11 144 -42 2 -13 9 -54 16 -93 6 -38
17 -83 25 -100 46 -104 43 -197 -11 -276 -18 -27 -29 -49 -25 -49 13 0 69 85
77 115 7 29 7 29 20 -13 17 -60 38 -88 73 -100 39 -14 40 -7 1 13 -39 20 -55
54 -74 151 -14 77 -19 95 -33 132 -3 9 -7 19 -8 22 0 3 -8 28 -18 55 -9 28
-21 79 -26 115 -8 62 -7 68 26 134 34 67 40 99 11 54z"/>
<path d="M3708 2200 c-4 -8 -11 -36 -17 -62 -21 -88 -72 -215 -122 -303 -50
-88 -58 -114 -21 -75 60 65 180 370 170 432 -3 17 -6 19 -10 8z"/>
<path d="M3561 2008 c-14 -37 -23 -88 -16 -88 3 0 12 15 19 33 24 57 28 77 16
77 -6 0 -14 -10 -19 -22z"/>
<path d="M2058 1593 c5 -10 12 -35 16 -55 7 -41 4 -44 -74 -53 -25 -3 -67 -10
-95 -16 -27 -6 -56 -11 -62 -12 -7 0 -13 -4 -13 -8 0 -7 -39 -22 -52 -20 -5 1
-7 -5 -5 -12 1 -6 -5 -11 -13 -9 -8 2 -12 0 -7 -4 4 -4 -11 -27 -35 -51 -66
-67 -38 -61 33 7 71 68 88 79 127 85 66 10 310 57 337 65 22 7 15 8 -29 4 -33
-3 -65 -8 -72 -11 -8 -3 -17 10 -24 39 -16 63 -18 68 -30 68 -7 0 -8 -6 -2
-17z"/>
<path d="M3025 1549 c-16 -4 -50 -7 -75 -8 -25 -1 -52 -6 -60 -11 -15 -10 101
-6 167 5 29 5 34 2 63 -40 37 -53 74 -75 132 -76 24 -1 71 -7 105 -14 35 -7
60 -9 58 -5 -6 10 -85 28 -152 34 -65 6 -83 16 -128 70 -38 46 -61 56 -110 45z"/>
<path d="M2540 1371 c0 -6 3 -11 8 -11 4 0 18 -9 31 -19 22 -17 22 -19 8 -42
-14 -22 -13 -31 4 -94 10 -38 19 -81 20 -95 1 -21 2 -22 6 -5 3 11 10 26 15
33 7 7 7 12 1 12 -6 0 -18 30 -28 67 -17 63 -17 67 -1 79 13 9 15 17 8 31 -12
22 -72 58 -72 44z"/>
</g>
</svg>
